# xmcd
#
# Track frame offsets: 
#        150
#        22342
#        38397
#        52284
#        69146
#        87395
#        99919
#        116427
#        129866
#        153772
#        168920
#
# Disc length: 3319 seconds
#
# Revision: 1
# Processed by: cddbd v1.5.2PL0 Copyright (c) Steve Scherf et al.
# Submitted via: ExactAudioCopyFreeDBPlugin 1.0
#
DISCID=7e0cf50b
DTITLE=方大同 - 15
DYEAR=2011
DGENRE=Pop
TTITLE0=Gotta Make A Change
TTITLE1=曇花
TTITLE2=張永成 (feat. Ghost Style)
TTITLE3=因為你
TTITLE4=情勝策略
TTITLE5=無菇朋友
TTITLE6=方大同 and 徐佳瑩 - 自以為
TTITLE7=二人遊
TTITLE8=Over
TTITLE9=Take Me
TTITLE10=好不容易
EXTD=
EXTT0=
EXTT1=
EXTT2=
EXTT3=
EXTT4=
EXTT5=
EXTT6=
EXTT7=
EXTT8=
EXTT9=
EXTT10=
PLAYORDER=
